<svg xmlns="http://www.w3.org/2000/svg" viewBox="0 0 128 128" width="128" height="128">
  <defs>
    <linearGradient id="bg" x1="0" y1="0" x2="1" y2="1">
      <stop offset="0" stop-color="#20252f"></stop>
      <stop offset="1" stop-color="#0f1218"></stop>
    </linearGradient>
    <linearGradient id="cardA" x1="0" y1="0" x2="0" y2="1">
      <stop offset="0" stop-color="#edb567"></stop>
      <stop offset="1" stop-color="#d2933f"></stop>
    </linearGradient>
    <linearGradient id="cardB" x1="0" y1="0" x2="0" y2="1">
      <stop offset="0" stop-color="#6fc6d8"></stop>
      <stop offset="1" stop-color="#46a3b6"></stop>
    </linearGradient>
  </defs>

  
  <rect width="128" height="128" rx="29" fill="url(#bg)"></rect>
  <rect x="0.75" y="0.75" width="126.5" height="126.5" rx="28.25" fill="none" stroke="#ffffff" stroke-opacity="0.07" stroke-width="1.5"></rect>

  
  <g transform="rotate(-7 44 66)">
    <rect x="20" y="30" width="50" height="72" rx="9" fill="url(#cardA)"></rect>
    <rect x="20.5" y="30.5" width="49" height="71" rx="8.5" fill="none" stroke="#ffffff" stroke-opacity="0.28" stroke-width="1"></rect>
    
    <rect x="29" y="44" width="32" height="4.5" rx="2.25" fill="#7a531c" fill-opacity="0.55"></rect>
    <rect x="29" y="56" width="24" height="4.5" rx="2.25" fill="#7a531c" fill-opacity="0.55"></rect>
    <rect x="29" y="68" width="28" height="4.5" rx="2.25" fill="#7a531c" fill-opacity="0.55"></rect>
    <rect x="29" y="80" width="20" height="4.5" rx="2.25" fill="#7a531c" fill-opacity="0.55"></rect>
  </g>

  
  <g transform="rotate(7 86 62)">
    <rect x="58" y="26" width="50" height="72" rx="9" fill="url(#cardB)"></rect>
    <rect x="58.5" y="26.5" width="49" height="71" rx="8.5" fill="none" stroke="#ffffff" stroke-opacity="0.28" stroke-width="1"></rect>
    
    <rect x="67" y="40" width="32" height="4.5" rx="2.25" fill="#1e5563" fill-opacity="0.55"></rect>
    <rect x="67" y="52" width="24" height="4.5" rx="2.25" fill="#1e5563" fill-opacity="0.55"></rect>
    <rect x="67" y="64" width="28" height="4.5" rx="2.25" fill="#1e5563" fill-opacity="0.55"></rect>
    <rect x="67" y="76" width="20" height="4.5" rx="2.25" fill="#1e5563" fill-opacity="0.55"></rect>
  </g>

  
  <g transform="translate(64 64)">
    <circle r="17.5" fill="#0f1218"></circle>
    <circle r="15" fill="#d9485e"></circle>
    <circle r="15" fill="none" stroke="#ffffff" stroke-opacity="0.32" stroke-width="1"></circle>
    <path d="M -3.2 -7 L -8.4 0 L -3.2 7" fill="none" stroke="#fff" stroke-width="2.6" stroke-linecap="round" stroke-linejoin="round"></path>
    <path d="M 3.2 -7 L 8.4 0 L 3.2 7" fill="none" stroke="#fff" stroke-width="2.6" stroke-linecap="round" stroke-linejoin="round"></path>
  </g>
</svg>